<svg width="51" height="41" viewBox="0 0 51 41" fill="none" xmlns="http://www.w3.org/2000/svg">
<g filter="url(#filter0_dd_411_1268)">
<rect x="7" y="3" width="37" height="26" rx="4" fill="#249F58"/>
<path fill-rule="evenodd" clip-rule="evenodd" d="M35.1905 20.3334V18.6001H15.8096L19.3334 20.3334H29.9048C29.9048 21.2902 31.0888 22.0668 32.5477 22.0668C34.0065 22.0668 35.1905 21.2902 35.1905 20.3334ZM22.3815 9.77051C22.3603 9.77051 22.3286 9.78091 22.2881 9.80517C22.1929 9.86757 22.0062 10.06 21.9991 10.2818C21.9938 10.4084 21.9692 10.4084 22.052 10.4898C22.1119 10.573 22.1753 10.5661 22.2951 10.502C22.3656 10.45 22.3885 10.4205 22.4132 10.3356C22.4414 10.1969 22.2599 10.4049 22.237 10.2454C22.1965 10.0998 22.3127 10.0374 22.422 9.89877C22.4255 9.82944 22.4255 9.77744 22.3815 9.77397V9.77051ZM24.1487 9.77917C24.1134 9.78611 24.0729 9.83117 24.0147 9.93171C23.9742 10.0392 23.7963 10.2021 23.9267 10.5384C24.0288 10.7516 24.0729 11.0965 24.0253 11.483C23.9513 11.5922 23.9372 11.6304 23.8403 11.7396C23.7064 11.8834 23.5584 11.847 23.4492 11.7916C23.3435 11.7222 23.2624 11.6876 23.2148 11.4692C23.2237 11.1225 23.2448 10.547 23.1796 10.4257C23.0845 10.2385 22.9259 10.3044 22.8589 10.3616C22.5365 10.6562 22.3762 11.1468 22.2775 11.5402C22.1894 11.8245 22.0925 11.7413 22.0256 11.6269C21.8617 11.4744 21.8494 10.2922 21.652 10.4881C21.3349 11.379 21.8335 12.3549 22.1806 12.2596C22.4273 12.3636 22.5858 11.8956 22.688 11.3842C22.7585 11.2404 22.8114 11.223 22.8466 11.2976C22.8378 11.977 22.8995 12.1296 23.0757 12.3341C23.4703 12.6357 23.798 12.3722 23.8245 12.348L24.1328 12.0464C24.2033 11.977 24.2914 11.9701 24.3883 12.0325C24.4834 12.1192 24.4711 12.263 24.6702 12.3618C24.8428 12.4312 25.204 12.3792 25.2868 12.2353C25.4014 12.0446 25.4278 11.9788 25.4807 11.906C25.5617 11.802 25.7009 11.8488 25.7009 11.8817C25.6886 11.9424 25.6075 12.003 25.6621 12.107C25.759 12.1764 25.7819 12.1313 25.8383 12.1157C26.0392 12.0221 26.1907 11.5922 26.1907 11.5922C26.1995 11.4328 26.1079 11.4449 26.0497 11.4778C25.9705 11.5246 25.9669 11.5402 25.8912 11.587C25.7907 11.6009 25.6005 11.665 25.5071 11.5212C25.4102 11.3478 25.4102 11.1086 25.3362 10.9318C25.3362 10.9214 25.2076 10.6597 25.3256 10.6441C25.3837 10.6545 25.5141 10.6874 25.5335 10.5817C25.5969 10.4777 25.3978 10.183 25.2622 10.0374C25.1459 9.91091 24.9838 9.89531 24.827 10.0236C24.716 10.1241 24.7336 10.235 24.7107 10.3408C24.6843 10.4621 24.6896 10.6129 24.8164 10.7741C24.9257 10.9856 25.1247 11.2594 25.0578 11.6442C25.0578 11.6442 24.9433 11.828 24.7407 11.8037C24.6526 11.7864 24.5151 11.7517 24.4411 11.2144C24.3883 10.8105 24.4552 10.2437 24.2826 9.97851C24.242 9.87971 24.2086 9.78264 24.1522 9.78784L24.1487 9.77917ZM23.5884 9.82424C23.5355 9.82944 23.4774 9.89011 23.4298 10.0062C23.3893 10.0964 23.3382 10.5609 23.347 10.5609C23.3117 10.6996 23.4932 10.7585 23.576 10.5817C23.6994 10.2524 23.6994 10.1137 23.7064 9.97851C23.6888 9.87451 23.6412 9.82251 23.5884 9.82597V9.82424ZM25.6551 9.85891C25.6022 9.86584 25.5582 9.89704 25.5423 9.97677C25.5194 10.1605 25.5317 10.2628 25.5635 10.417C25.5864 10.521 25.7397 10.6909 25.8137 10.7914C26.1713 11.2646 26.5184 11.7396 26.8497 12.2301C26.9025 12.5976 26.9377 12.9546 26.9642 13.3117C27.0206 14.0917 27.0347 15.0624 26.9871 15.8857C27.1351 15.8909 27.3747 15.6482 27.4575 15.2964C27.5104 14.8041 27.4399 13.8057 27.4328 13.5145L27.4152 13.102C27.8028 13.726 28.1764 14.3846 28.5428 15.1057C28.6785 15.0433 28.6486 14.2997 28.571 14.1957C28.275 13.5717 27.8663 12.9546 27.7377 12.7172C27.6901 12.6305 27.5297 12.393 27.3412 12.1174C27.306 11.7222 27.2672 11.3894 27.2426 11.2889C27.1809 10.8729 27.4152 11.3357 27.3835 11.0948C27.306 10.6788 27.0734 10.398 26.7986 10.0166C26.7105 9.89531 26.7105 9.86757 26.5748 10.0478C26.4955 10.2298 26.4955 10.3824 26.5219 10.5245C26.4832 10.4725 26.4391 10.4136 26.3757 10.3373L25.9264 9.96291C25.8647 9.91958 25.7449 9.85371 25.6551 9.85891ZM31.7795 9.92304C31.753 9.91957 31.7266 9.93171 31.6914 9.97851C31.6297 10.0305 31.5645 10.1293 31.568 10.2558C31.5804 10.4725 31.6209 10.6961 31.635 10.9145L31.6526 11.0012C31.6279 10.9734 31.6068 10.9492 31.5945 10.9388C31.1593 10.4881 31.7936 10.8625 31.5099 10.5176C31.272 10.2576 31.2016 10.1778 30.9989 10.0218C30.8932 9.95944 30.8333 9.83464 30.7998 10.0461C30.7857 10.2316 30.7717 10.4482 30.7822 10.6042C30.7822 10.6909 30.8756 10.8556 30.9549 10.9509C31.2438 11.3028 31.5398 11.6754 31.8358 12.0637C31.8993 12.8558 31.9151 13.5821 31.9768 14.376C31.9697 14.7157 31.864 15.1664 31.7654 15.208C31.7654 15.208 31.6103 15.2946 31.5081 15.1993C31.4324 15.1698 31.1346 14.7088 31.1346 14.7088C30.9813 14.5701 30.8791 14.61 30.7717 14.7088C30.4721 14.993 30.3347 15.5269 30.1321 15.8944C30.0792 15.9758 29.933 16.0469 29.7691 15.8874C29.3516 15.3258 29.5929 14.5268 29.5436 14.733C29.1736 15.1456 29.3357 15.8285 29.4203 15.9758C29.5436 16.2185 29.6423 16.3745 29.8784 16.4906C30.0986 16.6466 30.266 16.5513 30.3611 16.4386C30.5796 16.2168 30.5831 15.6465 30.6853 15.5338C30.7558 15.3258 30.9373 15.3605 31.0254 15.4541C31.1135 15.5754 31.2121 15.6534 31.3372 15.7193C31.5416 15.8961 31.7847 15.9273 32.0244 15.7661C32.1882 15.676 32.2957 15.5581 32.3908 15.3258C32.4966 15.0554 32.4437 13.6341 32.4208 12.8437L32.8789 13.4954C32.9423 14.1888 32.9723 14.8734 32.9494 15.5286C32.9353 15.6586 33.4127 15.1404 33.4075 14.8942C33.4075 14.681 33.411 14.4852 33.4075 14.3049C33.6418 14.6689 33.8656 15.0381 34.077 15.4142C34.2091 15.3449 34.1651 14.6117 34.0823 14.5129C33.8603 14.1454 33.5748 13.7502 33.3546 13.4417C33.3106 13.0552 33.2524 12.5993 33.2242 12.4589C33.1837 12.2405 33.1414 11.9129 33.078 11.6546C33.0604 11.5558 33.0075 11.2334 33.0251 11.204C33.0498 11.1294 33.1485 11.204 33.196 11.1208C33.2665 11.0428 32.9458 10.2194 32.782 9.98717C32.7238 9.88317 32.6164 9.91784 32.486 10.0912C32.3627 10.2021 32.4085 10.4586 32.4543 10.703C32.5741 11.327 32.6833 11.958 32.7679 12.5924C32.6093 12.3584 32.4155 12.0776 32.2252 11.8089L32.2006 11.6876C32.2006 11.6737 32.1759 11.1762 32.153 11.0584C32.1477 11.0098 32.1354 10.996 32.1882 11.0029C32.2411 11.048 32.2481 11.0497 32.2816 11.0653C32.338 11.0722 32.3873 10.9821 32.3521 10.8972L31.8411 9.97157C31.8235 9.94904 31.7988 9.92824 31.7707 9.92477L31.7795 9.92304ZM15.9752 9.94037C15.8783 9.93691 15.7761 9.99237 15.8166 10.105C15.7919 10.1657 15.9998 10.3702 16.0368 10.4829C16.0668 10.5644 16.0016 10.8209 16.0721 10.8469C16.1337 10.8729 16.2201 10.6666 16.2518 10.4777C16.2694 10.3737 16.2571 10.0166 16.0104 9.94384C15.9981 9.94037 15.9857 9.94037 15.9717 9.93864L15.9752 9.94037ZM33.9818 9.94037C33.9589 9.94384 33.9325 9.97504 33.8937 10.0617C33.7968 10.2177 33.7634 10.495 33.8021 10.7377C34.0312 12.2804 34.2074 13.7745 34.2426 15.1404C34.2215 15.2721 34.2144 15.3414 34.1545 15.5044C34.0171 15.6777 33.8656 15.8926 33.7228 15.9966C33.5819 16.1006 33.2788 16.2012 33.1802 16.2774C32.863 16.4542 32.863 16.6588 33.1167 16.6674C33.5537 16.6154 34.0717 16.5808 34.4276 16.0521C34.5228 15.9048 34.6355 15.5026 34.639 15.2548C34.6743 13.8161 34.6214 12.4034 34.4012 11.3617C34.3871 11.2577 34.3413 11.0272 34.3589 10.9977C34.3853 10.9249 34.528 11.0029 34.5791 10.9214C34.6549 10.8452 34.2091 10.2853 34.0541 10.0461C34.0224 9.98717 34.0012 9.93691 33.9766 9.94211L33.9818 9.94037ZM29.3956 9.96464C29.378 9.96811 29.3533 9.99584 29.304 10.06C29.1807 10.4517 29.1384 10.7706 29.1859 11.0168C29.5031 12.6288 29.8202 14.0934 29.7709 15.6274C29.9189 15.6274 30.0916 15.2929 30.1656 14.9601C30.2061 14.5008 30.1374 14.2217 30.1268 13.9548C30.1145 13.6844 29.8167 11.5004 29.7568 11.2976C29.6828 10.9128 30.0457 11.2456 30.007 11.0237C29.8801 10.7394 29.5665 10.3304 29.4714 10.0825C29.4361 10.0166 29.4291 9.95597 29.4009 9.96117L29.3956 9.96464ZM18.2357 9.99584C18.2005 10.0028 18.1599 10.034 18.1476 10.0825C18.1388 10.1172 18.1617 10.1744 18.13 10.1917C18.1124 10.209 18.0454 10.1969 18.0489 10.105C18.0489 10.0738 18.026 10.0426 18.0137 10.0236C17.9996 10.0166 17.9908 10.0149 17.9661 10.0149C17.9362 10.0149 17.9362 10.0236 17.9203 10.0496C17.9133 10.0738 17.9027 10.0981 17.9027 10.1258C17.8992 10.1605 17.8851 10.1692 17.8622 10.1744C17.834 10.1744 17.8393 10.1778 17.8181 10.1622C17.8005 10.1501 17.7864 10.1449 17.7864 10.1206C17.7864 10.0946 17.7794 10.0513 17.7723 10.0374C17.76 10.0201 17.7406 10.0132 17.7195 10.008C17.6032 10.008 17.5961 10.1432 17.6014 10.1917C17.5926 10.2021 17.5891 10.4344 17.7477 10.5002C17.9591 10.6008 18.3608 10.5574 18.3467 10.2194C18.3467 10.19 18.3379 10.0894 18.3344 10.0634C18.3132 10.0114 18.2727 9.99411 18.2339 9.99931L18.2357 9.99584ZM21.1006 9.99931C21.0266 10.0028 20.9596 10.0236 20.9067 10.0513C20.7658 10.1848 20.7306 10.398 20.8433 10.5314C20.949 10.5834 21.06 10.6874 20.9878 10.7481C20.6812 11.0688 19.8831 11.6078 19.8426 11.7066V11.717H19.8496V11.7205C19.8901 11.7465 20.3905 11.7465 20.4451 11.7205H20.4487C20.6213 11.6564 21.4353 10.7412 21.4353 10.7412C21.393 10.7065 21.3543 10.6788 21.312 10.6424C21.2662 10.6042 21.2715 10.5661 21.312 10.528C21.5128 10.4136 21.4494 10.1588 21.3437 10.0426C21.2556 10.0045 21.1746 9.99064 21.1006 9.99584V9.99931ZM28.5887 9.99931C28.5675 10.0045 28.5411 10.034 28.5006 10.1206C28.4037 10.2766 28.3385 10.5453 28.3473 10.7966C28.5552 12.218 28.6186 13.4608 28.756 14.8821C28.7666 15.0208 28.7455 15.2184 28.6538 15.2981C28.3085 15.6517 27.8134 16.085 27.2743 16.2861C27.2161 16.3502 27.4187 16.6224 27.6795 16.6224C28.1165 16.5704 28.5006 16.3312 28.86 15.695C28.9534 15.5477 29.1207 15.2305 29.1243 14.9844C29.1595 13.5422 29.0538 12.419 28.8318 11.379C28.8195 11.275 28.8283 11.1537 28.8459 11.126C28.8741 11.0913 28.9692 11.126 29.0221 11.0445C29.0961 10.9682 28.8212 10.346 28.6662 10.1085C28.6345 10.0478 28.6168 9.99931 28.5887 10.001V9.99931ZM16.9883 10.0461C16.9284 10.053 16.872 10.0981 16.8438 10.1674C16.835 10.3928 16.8332 10.6181 16.8614 10.8296C16.9671 11.1988 16.9971 11.5229 17.0482 11.899C17.0658 12.4052 16.7522 12.1174 16.7663 11.8678C16.8367 11.542 16.8191 11.0306 16.7557 10.9006C16.7028 10.7706 16.6465 10.7394 16.5231 10.762C16.4262 10.755 16.1743 11.022 16.1038 11.4726C16.1038 11.4726 16.0439 11.7014 16.0192 11.906C15.984 12.1365 15.8289 12.3012 15.7197 11.8748C15.6263 11.5628 15.5699 10.8001 15.4131 10.9769C15.3673 11.5732 15.3145 12.6236 15.8289 12.731C16.4527 12.79 16.1073 11.6945 16.3328 11.4952C16.3769 11.3998 16.4562 11.3981 16.4615 11.5212V12.452C16.4544 12.7536 16.6553 12.8437 16.8138 12.9061C16.9777 12.894 17.0852 12.8992 17.1486 13.0552L17.2279 14.6672C17.2279 14.6672 17.6049 14.7712 17.6226 13.7606C17.6402 13.1661 17.4992 12.6686 17.582 12.5525C17.5856 12.4381 17.7336 12.4312 17.8357 12.4884C17.9996 12.601 18.0718 12.7397 18.3256 12.6842C18.7132 12.5802 18.9422 12.3965 18.9475 12.1053C18.9299 11.828 18.8947 11.5506 18.7713 11.2733C18.7889 11.2248 18.7008 11.0948 18.7185 11.0445C18.7854 11.1485 18.8911 11.1416 18.9123 11.0445C18.8488 10.8313 18.7467 10.6285 18.581 10.5418C18.4454 10.4205 18.2463 10.4465 18.1723 10.6926C18.137 10.9769 18.278 11.3132 18.4894 11.5888C18.5317 11.6962 18.5951 11.8748 18.5669 12.036C18.4559 12.0984 18.3449 12.0706 18.2498 11.9753C18.2498 11.9753 17.945 11.75 17.945 11.698C18.0278 11.1866 17.9626 11.126 17.9186 10.9873C17.8868 10.7897 17.7917 10.7273 17.7159 10.5921C17.6384 10.5106 17.5345 10.5106 17.4869 10.5921C17.3495 10.8226 17.4129 11.3201 17.5116 11.5402C17.582 11.7448 17.6913 11.873 17.6402 11.873C17.5979 11.9857 17.5098 11.9597 17.4464 11.8262C17.3583 11.5489 17.3371 11.1398 17.3371 10.9544C17.3107 10.7256 17.2807 10.235 17.1257 10.1102C17.0852 10.0548 17.0376 10.0357 16.99 10.0409L16.9883 10.0461ZM19.1766 10.0461C19.1466 10.053 19.1114 10.0704 19.0708 10.0808C18.9387 10.1206 18.8154 10.2333 18.8541 10.4517C19.0127 11.3877 19.1131 12.1036 19.2699 13.0396C19.2928 13.1505 19.1995 13.2944 19.0797 13.2822C18.8753 13.1436 18.8242 12.8662 18.4753 12.8801C18.2216 12.8801 17.9327 13.154 17.8974 13.414C17.8551 13.622 17.841 13.8473 17.8974 14.0276C18.0736 14.2356 18.2886 14.2148 18.4753 14.1662C18.6286 14.1056 18.7572 13.9582 18.8101 13.9929C18.8453 14.0501 18.8066 14.5372 18.0877 14.9116C17.6437 15.1092 17.2913 15.1542 17.101 14.8006C16.9847 14.5788 17.1116 13.7329 16.8227 13.927C15.9664 16.0972 18.8259 16.3988 19.1448 14.0172C19.166 13.9478 19.2277 13.882 19.2735 13.8993C19.2911 13.908 19.3087 13.934 19.3157 13.9825C19.2488 16.1388 17.1028 16.2878 16.7398 15.6084C16.6482 15.4489 16.6218 15.0918 16.613 14.8804C16.5954 14.7504 16.5637 14.6758 16.5249 14.6464C16.4368 14.5822 16.3205 14.7504 16.2958 15.0398C16.2606 15.2738 16.2694 15.338 16.2694 15.5633C16.3857 17.2672 19.1466 16.534 19.5959 15.13C19.8179 14.402 19.5906 13.8525 19.6664 13.7849L19.6717 13.7814H19.6769L19.6857 13.778C19.9606 14.0692 20.3447 13.8126 20.4293 13.7138C20.4645 13.6618 20.5561 13.6272 20.6196 13.6965C20.831 13.8456 21.208 13.7745 21.2856 13.5058C21.3314 13.2458 21.3701 12.9789 21.3789 12.6998C21.238 12.7432 21.1252 12.7744 21.0794 12.8212C21.0688 12.8333 21.0618 12.8472 21.0583 12.861L21.023 13.0916C21.023 13.1002 21.0195 13.1054 21.016 13.1089C21.0107 13.121 20.9984 13.1297 20.9913 13.1349C20.942 13.1609 20.8557 13.147 20.8504 13.076C20.7852 12.7813 20.5121 12.7432 20.3465 13.2025C20.2355 13.2892 20.0293 13.3065 20.0117 13.1748C20.0381 12.8662 19.9113 12.8246 19.6593 12.9702L19.4162 11.1676C19.5219 11.1624 19.617 11.2369 19.7157 11.119C19.61 10.8001 19.3897 10.1518 19.2647 10.0894H19.2611L19.2435 10.0721C19.2435 10.0686 19.2382 10.0669 19.2347 10.0652L19.2277 10.0548C19.2206 10.0548 19.2136 10.0513 19.21 10.0496C19.1977 10.0461 19.1871 10.0461 19.1748 10.0461H19.1766ZM27.7077 10.053C27.5985 10.0496 27.4787 10.1172 27.5245 10.2524C27.4963 10.3269 27.7588 10.5765 27.8011 10.7117C27.8768 10.9197 27.7429 11.1225 27.8222 11.152C27.8962 11.1832 27.9984 10.9353 28.0337 10.7048C28.0795 10.5176 27.9456 10.1362 27.7517 10.0582L27.7077 10.0548V10.053ZM21.06 10.2801C21.1094 10.2766 21.1693 10.3217 21.201 10.3841C21.2309 10.4534 21.2151 10.5176 21.1657 10.5297C21.1129 10.5418 21.0459 10.4985 21.0142 10.4292C20.9825 10.3598 20.9966 10.2957 21.0495 10.2836H21.06V10.2801ZM33.3881 10.5956C33.2877 10.5921 33.1767 10.6649 33.2225 10.8122C33.1978 10.892 33.4339 11.1624 33.4744 11.3114C33.5097 11.4154 33.4216 11.7552 33.492 11.7864C33.559 11.821 33.6506 11.5506 33.6858 11.301C33.707 11.1624 33.6048 10.6857 33.4304 10.6008C33.418 10.5973 33.4039 10.5938 33.3898 10.5938L33.3881 10.5956ZM26.5695 10.762C26.5818 10.8018 26.5907 10.8417 26.5959 10.8833C26.6171 10.97 26.6347 11.0566 26.6523 11.1468C26.5748 11.0393 26.5114 10.9526 26.4814 10.9214C26.3052 10.7134 26.4849 10.7862 26.5695 10.762ZM28.1429 11.5212C28.1041 11.5281 28.0671 11.561 28.0548 11.613C28.0442 11.6442 28.0689 11.6997 28.0372 11.717C28.0196 11.7344 27.9491 11.724 27.9544 11.6304C27.9544 11.5992 27.9315 11.5662 27.9191 11.5489C27.905 11.5402 27.8962 11.5368 27.8716 11.5368C27.8416 11.5368 27.8416 11.5454 27.8257 11.5714C27.8187 11.5957 27.8081 11.62 27.8081 11.6494C27.8081 11.6841 27.794 11.6945 27.7694 11.7014C27.7412 11.7014 27.7465 11.7014 27.7236 11.6893C27.7095 11.672 27.6936 11.6685 27.6936 11.6442C27.6936 11.6182 27.6883 11.5784 27.6795 11.561C27.6672 11.5437 27.6496 11.5385 27.6267 11.5316C27.5121 11.5316 27.5033 11.6633 27.5104 11.7118C27.5033 11.7222 27.498 11.958 27.6566 12.0238C27.8716 12.1226 28.2733 12.0758 28.2557 11.7396C28.2557 11.7101 28.2468 11.6096 28.2451 11.5836C28.2222 11.5316 28.1817 11.5142 28.1447 11.5194L28.1429 11.5212ZM20.9719 11.5905C20.9473 11.5905 20.912 11.5974 20.8715 11.6217C20.683 11.7222 20.6107 12.0204 20.7306 12.1937C20.8363 12.3497 21.0125 12.2925 21.0354 12.2925C21.2204 12.3168 21.3296 11.9528 21.3296 11.9528C21.3296 11.9528 21.3349 11.8488 21.1182 12.0429C21.023 12.0602 21.0125 12.0256 20.9878 11.9736C20.9667 11.8817 20.9702 11.7829 21.0142 11.691C21.0354 11.6338 21.0142 11.5974 20.9719 11.594V11.5905ZM31.1082 11.6373C31.0025 11.6321 30.8915 11.6997 30.8615 11.8401C30.8615 11.9233 30.9003 11.9684 30.8932 12.0446C30.8844 12.088 30.8404 12.114 30.7311 12.0654C30.7487 12.0481 30.6607 11.9302 30.6607 11.9302C30.5778 11.8782 30.4668 11.9302 30.3928 11.9788C30.3523 12.0516 30.3224 12.1746 30.3682 12.2994C30.488 12.5196 30.902 12.894 31.0994 12.8974C31.1029 12.6998 31.1223 12.4364 31.1346 12.2734C31.1381 12.211 31.1522 12.1434 31.2139 12.1278C31.2738 12.1105 31.3778 12.1868 31.3778 12.1226C31.3672 11.9978 31.3425 11.8106 31.272 11.724C31.2333 11.672 31.1716 11.6408 31.1099 11.6373H31.1082ZM22.7162 12.3254L22.7109 12.3306C22.7109 12.3306 22.7074 12.3306 22.7057 12.3341C22.6845 12.3514 22.6598 12.3861 22.6052 12.4208C22.5118 12.5248 22.496 12.5993 22.4995 12.8073C22.5066 12.8298 22.6757 13.2978 22.8219 13.6254C22.9206 13.9669 23.0105 14.3586 22.9453 14.7278C22.7162 15.2166 22.2581 15.6552 21.8124 15.8944C21.5833 15.9637 21.3895 15.9394 21.3367 15.8909C21.2063 15.8042 21.2045 15.6482 21.2133 15.624V15.6188C21.5868 15.3622 22.015 15.1542 22.3497 14.4626C22.4484 14.1974 22.4801 14.038 22.3815 13.6306C22.3427 13.4746 22.2934 13.3533 22.1877 13.2424H22.1912C22.2546 13.2129 22.4202 13.3325 22.4467 13.2597C22.4061 13.0621 22.2705 12.8004 22.1207 12.6652C21.9868 12.5438 21.8388 12.5317 21.719 12.6409C21.5816 12.7172 21.5534 12.9876 21.6186 13.2233C21.6926 13.4001 21.8917 13.4313 22.0326 13.7901C22.0361 13.8144 22.0802 14.0588 22.0097 14.1593C21.9498 14.3361 21.208 14.9116 21.1552 14.9462L21.1499 14.9497L21.1464 14.9532H21.1393V14.948C21.1358 14.9341 21.1393 14.896 21.1393 14.8388C21.134 14.7313 21.1798 14.4869 21.1746 14.4436V14.4401C20.9279 14.5961 20.8451 15.0728 20.801 15.2149C20.1791 15.6361 19.4743 15.9498 19.0673 16.3762C18.8559 16.7056 20.5262 16.0053 20.72 15.9204L20.7253 15.9256C20.764 15.9654 20.7658 16.1041 20.8768 16.2306C21.053 16.4612 21.4195 16.6033 21.7789 16.5149C22.3815 16.3017 22.7303 15.8978 23.0827 15.4489C23.132 15.3796 23.2113 15.3206 23.2853 15.3761C23.5267 15.91 24.2279 16.2913 25.1318 16.3294C25.3432 16.0798 25.2428 15.9568 25.1582 15.9048C25.1318 15.8874 24.7089 15.7245 24.642 15.5633C24.6015 15.4142 24.7019 15.2808 24.9027 15.182C25.4842 15.1126 26.055 15.0346 26.6083 14.8596C26.6136 14.6758 26.7228 14.4037 26.7968 14.2841C26.8497 14.2026 26.8796 14.194 26.8919 14.1836V14.1801H26.8955V14.1576L26.8003 14.1021L24.945 14.0952C24.9221 14.0865 24.9063 14.0778 24.8957 14.0692L24.8922 14.064C24.8922 14.064 24.8887 14.064 24.8887 14.0605C24.8887 14.057 24.8851 14.057 24.8851 14.057V14.0588V14.0484L24.8887 14.0432C24.8975 14.0328 24.9204 14.0206 24.9468 14.0085C25.3908 13.9513 26.1766 13.8248 26.2295 13.0812C26.2207 12.6929 26.0603 12.4398 25.5776 12.3705C25.2217 12.3965 24.9679 12.7345 25.0085 13.1054C24.9908 13.2042 25.0437 13.4001 24.938 13.4226C24.2579 13.485 23.5144 13.9045 23.4897 14.2061H23.4791C23.4791 14.2096 23.4756 14.2096 23.4738 14.2096H23.4562C23.4122 14.1957 23.3558 14.1229 23.3646 14.0241C23.3382 13.5041 23.1655 12.9148 22.8977 12.4641C22.8008 12.3688 22.7567 12.3306 22.7321 12.3254H22.7162ZM24.4922 12.5993C24.457 12.6062 24.4165 12.6374 24.4041 12.6894C24.3953 12.7241 24.4217 12.7796 24.39 12.7969C24.3724 12.8142 24.3019 12.8038 24.3055 12.7102C24.3055 12.6808 24.2826 12.6478 24.2702 12.6288C24.2561 12.6201 24.2473 12.6184 24.2244 12.6184C24.1945 12.6184 24.1927 12.6253 24.1768 12.6496C24.168 12.6738 24.1592 12.7016 24.1592 12.7276C24.1557 12.7622 24.1416 12.7726 24.1187 12.7761C24.0905 12.7761 24.0976 12.7813 24.0747 12.7674C24.0606 12.7536 24.0429 12.7466 24.0429 12.7224C24.0429 12.6964 24.0377 12.653 24.0306 12.6357C24.0183 12.6236 23.9989 12.6184 23.9777 12.6114C23.8597 12.6114 23.8544 12.7414 23.8597 12.7917C23.8509 12.8004 23.8456 13.0344 24.0042 13.1002C24.2156 13.2008 24.7266 13.1418 24.6032 12.8177C24.6032 12.7882 24.5944 12.6877 24.5927 12.6617C24.5697 12.6097 24.5292 12.5924 24.4905 12.5976L24.4922 12.5993ZM31.6544 12.8888H31.6367C31.6367 12.8888 30.6466 13.5821 30.6237 13.6064C30.525 13.693 30.5743 13.9929 30.6237 13.9582C30.6941 13.9842 31.6896 13.3204 31.6702 13.2424C31.7143 13.2458 31.7354 12.9009 31.6526 12.887L31.6544 12.8888ZM25.4278 12.9928C25.4666 12.9876 25.5194 13.0014 25.5687 13.0274C25.6445 13.0725 25.6921 13.1349 25.6833 13.1834V13.1904C25.6797 13.1904 25.6797 13.1904 25.6797 13.1938V13.1973C25.6797 13.1973 25.6762 13.1973 25.6762 13.2008C25.6762 13.2042 25.6709 13.2077 25.6674 13.2112C25.6322 13.2458 25.5511 13.2389 25.4736 13.1938C25.3996 13.154 25.3556 13.0898 25.3591 13.0448V13.0396L25.3679 13.0222C25.3679 13.0222 25.3679 13.0188 25.3714 13.017L25.3802 13.0066C25.3926 12.998 25.4084 12.9893 25.4278 12.9893V12.9928ZM16.7627 13.1661C16.2518 13.1765 15.4995 13.8282 15.4801 14.1888L17.101 13.4261C17.0129 13.2944 17.0957 13.1765 16.7627 13.1661ZM18.4242 13.3914C18.4736 13.3949 18.5264 13.4192 18.5546 13.4885C18.5793 13.5526 18.5546 13.6185 18.5247 13.6514V13.6566C18.5 13.6844 18.426 13.674 18.3714 13.674C18.3062 13.6705 18.2745 13.6601 18.2357 13.6081C18.2146 13.5474 18.2709 13.4902 18.2974 13.4486L18.3097 13.4313C18.3273 13.414 18.3626 13.4001 18.3978 13.3966L18.4207 13.3932L18.4242 13.3914ZM31.4623 13.5942C31.3689 13.6046 31.2826 13.6896 31.3214 13.8248C31.2967 13.9045 31.4447 14.1836 31.4852 14.3309C31.5205 14.4349 31.4394 14.7348 31.5117 14.7642C31.5786 14.7989 31.753 14.5909 31.7477 14.324C31.7654 14.1853 31.6984 13.6826 31.524 13.5994C31.5028 13.5942 31.4817 13.5925 31.4606 13.5942H31.4623ZM20.3905 14.0865C20.3095 14.0917 20.2372 14.1333 20.2707 14.246C20.2654 14.3257 20.4997 14.4245 20.5121 14.61C20.5438 14.6897 20.4592 14.9393 20.5297 14.9601C20.5931 14.9861 20.6812 14.7868 20.7147 14.6065C20.7323 14.506 20.6337 14.1558 20.468 14.0917C20.4416 14.0848 20.4152 14.083 20.3887 14.0848L20.3905 14.0865ZM23.7029 14.5302H23.724C23.9319 14.5857 24.235 14.5926 24.4993 14.6169C24.716 14.6342 24.8217 14.7972 24.6226 14.8682C24.4217 14.9341 24.2297 14.9896 24.2297 15.2704C24.2544 15.409 24.2473 15.4818 24.2262 15.513C24.2262 15.5182 24.2209 15.5217 24.2191 15.5234C24.2191 15.5234 24.2191 15.5269 24.2156 15.5269V15.5304H24.2103L24.198 15.5356H24.1892C24.1416 15.5442 24.0729 15.5009 24.0218 15.4732C23.8985 15.3865 23.5549 15.1785 23.5056 14.7278C23.4985 14.6238 23.576 14.5372 23.6994 14.5285L23.7029 14.5302ZM15.6087 14.8769C15.5964 14.8769 15.5735 14.915 15.5382 14.9584C15.2317 15.435 15.2035 16.1474 15.3726 16.3624C15.4607 16.4612 15.6087 16.5062 15.7179 16.475C15.9117 16.3936 15.9946 16.0105 15.947 15.8718C15.8853 15.773 15.8342 15.7574 15.7708 15.8406C15.6351 16.1093 15.577 15.9238 15.5682 15.7713C15.547 15.4888 15.5752 15.2253 15.6069 15.0173C15.6246 14.9133 15.6246 14.8734 15.6069 14.8734L15.6087 14.8769ZM25.9987 15.5044C25.9757 15.5044 25.9528 15.5078 25.9282 15.5217C25.9229 15.5217 25.7097 15.6604 25.641 15.7609C25.5987 15.7921 25.6057 15.8181 25.6163 15.8736C25.648 15.9481 25.7044 15.9256 25.7714 15.8909C25.8595 15.877 25.9 15.9342 25.8947 16.0365C25.8542 16.1665 25.9123 16.2133 25.9123 16.222C25.9123 16.2289 25.9951 16.3 26.0938 16.2445C26.2999 16.1665 26.4286 16.0885 26.7193 16.0278C26.795 16.0278 26.7897 15.8268 26.6699 15.8198C26.5114 15.8268 26.3704 15.8372 26.2118 15.9585C26.1149 15.9793 26.0991 15.9204 26.0762 15.8684C26.0515 15.7401 26.1326 15.65 26.1149 15.5529C26.1185 15.5581 26.0656 15.5113 25.9969 15.5078L25.9987 15.5044ZM32.6516 15.747L32.5107 15.7609C32.4472 15.773 32.4261 15.8008 32.4137 15.877C32.419 15.9897 32.4895 15.9845 32.5635 16.0296C32.6058 16.0816 32.634 16.1301 32.56 16.2202C32.4895 16.2809 32.4419 16.3156 32.3715 16.3762C32.3415 16.4317 32.3186 16.5149 32.4208 16.5426C32.6058 16.5946 33.0339 16.3208 33.0339 16.3173C33.1044 16.2653 33.0797 16.1665 33.0745 16.1665C33.0322 16.1214 32.9406 16.1492 32.8807 16.1405C32.8507 16.1405 32.7573 16.1266 32.7996 16.0434C32.8384 15.9914 32.8525 15.962 32.8789 15.8978C32.9053 15.8354 32.8789 15.7938 32.7767 15.7592C32.7238 15.7488 32.6886 15.7453 32.6481 15.747H32.6516ZM30.0916 22.4377C30.5673 22.4602 31.0113 22.4429 31.4835 22.4654C31.561 22.5278 31.524 22.6734 31.4747 22.6977L31.4658 22.7012H31.4535L31.0553 22.6908V22.6682C31.0166 22.5608 30.7523 22.5677 30.6888 22.6509V22.6561C30.6853 22.6561 30.6836 22.6613 30.6836 22.663L30.68 22.6717V22.6925C30.4686 22.7185 30.2836 22.6856 30.0757 22.6786C30.014 22.6041 30.0228 22.4706 30.0933 22.436L30.0916 22.4377Z" fill="white"/>
</g>
<defs>
<filter id="filter0_dd_411_1268" x="0.142857" y="0.714285" width="50.7143" height="39.7143" filterUnits="userSpaceOnUse" color-interpolation-filters="sRGB">
<feFlood flood-opacity="0" result="BackgroundImageFix"/>
<feColorMatrix in="SourceAlpha" type="matrix" values="0 0 0 0 0 0 0 0 0 0 0 0 0 0 0 0 0 0 127 0" result="hardAlpha"/>
<feOffset dy="4.57143"/>
<feGaussianBlur stdDeviation="3.42857"/>
<feComposite in2="hardAlpha" operator="out"/>
<feColorMatrix type="matrix" values="0 0 0 0 0.258824 0 0 0 0 0.278431 0 0 0 0 0.298039 0 0 0 0.08 0"/>
<feBlend mode="normal" in2="BackgroundImageFix" result="effect1_dropShadow_411_1268"/>
<feColorMatrix in="SourceAlpha" type="matrix" values="0 0 0 0 0 0 0 0 0 0 0 0 0 0 0 0 0 0 127 0" result="hardAlpha"/>
<feOffset/>
<feGaussianBlur stdDeviation="0.285714"/>
<feComposite in2="hardAlpha" operator="out"/>
<feColorMatrix type="matrix" values="0 0 0 0 0.258824 0 0 0 0 0.278431 0 0 0 0 0.298039 0 0 0 0.32 0"/>
<feBlend mode="normal" in2="effect1_dropShadow_411_1268" result="effect2_dropShadow_411_1268"/>
<feBlend mode="normal" in="SourceGraphic" in2="effect2_dropShadow_411_1268" result="shape"/>
</filter>
</defs>
</svg>
