<svg width="37" height="26" viewBox="0 0 37 26" fill="none" xmlns="http://www.w3.org/2000/svg">
<path d="M33.4762 0H3.52381C1.57766 0 0 1.55208 0 3.46667V22.5333C0 24.4479 1.57766 26 3.52381 26H33.4762C35.4223 26 37 24.4479 37 22.5333V3.46667C37 1.55208 35.4223 0 33.4762 0Z" fill="#F93939"/>
<path fill-rule="evenodd" clip-rule="evenodd" d="M0 6.93337H37V19.0667H0V6.93337Z" fill="#FFDA2C"/>
<path fill-rule="evenodd" clip-rule="evenodd" d="M15.8572 10.7849V15.1529C15.8572 16.3662 14.6732 17.3369 13.2143 17.3369H9.69051C8.23518 17.3334 7.04765 16.3575 7.04765 15.1494V10.7814C7.04765 9.78992 7.83699 8.96139 8.92232 8.69272C9.25003 7.79139 10.2578 8.59912 11.4524 8.59912C12.654 8.59912 13.6548 7.79659 13.9825 8.69445C15.0643 8.97005 15.8572 9.80032 15.8572 10.7849Z" fill="#D4AF2C"/>
<path fill-rule="evenodd" clip-rule="evenodd" d="M15.857 12.1334H17.6189V17.3334H15.857V12.1334ZM5.28561 12.1334H7.04751V17.3334H5.28561V12.1334Z" fill="#CBCBCB"/>
<path fill-rule="evenodd" clip-rule="evenodd" d="M15.857 15.6H17.6189V17.3334H15.857V15.6ZM5.28561 15.6H7.04751V17.3334H5.28561V15.6Z" fill="#1A47B8"/>
<path fill-rule="evenodd" clip-rule="evenodd" d="M15.857 10.4H17.6189V12.1334H15.857V10.4ZM5.28561 10.4H7.04751V12.1334H5.28561V10.4Z" fill="#D4AF2C"/>
<path fill-rule="evenodd" clip-rule="evenodd" d="M8.80952 10.4H10.5714V13H8.80952V10.4ZM12.3333 13.8667H14.0952V16.4667H12.3333V13.8667Z" fill="#AF010D"/>
<path fill-rule="evenodd" clip-rule="evenodd" d="M8.80952 13.8667H10.5714V16.4667H8.80952V13.8667Z" fill="#FFDA2C"/>
<path fill-rule="evenodd" clip-rule="evenodd" d="M12.3333 10.4H14.0952V13H12.3333V10.4Z" fill="#AE6A3E"/>
<path fill-rule="evenodd" clip-rule="evenodd" d="M10.5714 10.4L8.80952 8.66671H14.0952L12.3333 10.4H10.5714Z" fill="#AF010D"/>
<path fill-rule="evenodd" clip-rule="evenodd" d="M10.5712 6.93337H12.3331V8.6667H10.5712V6.93337Z" fill="#D4AF2C"/>
</svg>
