<svg width="51" height="41" viewBox="0 0 51 41" fill="none" xmlns="http://www.w3.org/2000/svg">
<g filter="url(#filter0_dd_411_1266)">
<g clip-path="url(#clip0_411_1266)">
<rect x="7" y="3" width="37" height="26" rx="4" fill="#F93939"/>
<path d="M40.4762 3H10.5238C8.57766 3 7 4.55208 7 6.46667V25.5333C7 27.4479 8.57766 29 10.5238 29H40.4762C42.4223 29 44 27.4479 44 25.5333V6.46667C44 4.55208 42.4223 3 40.4762 3Z" fill="#F93939"/>
<path fill-rule="evenodd" clip-rule="evenodd" d="M16.6872 15.532L14.0972 16.8719L14.5905 14.0344L12.4973 12.0237L15.3922 11.6129L16.6872 9.03025L17.9804 11.6129L20.8752 12.0237L18.7785 14.0344L19.2754 16.8701L16.6872 15.532ZM22.8573 8.19998H24.6193V9.93332H22.8573V8.19998ZM24.6193 11.6666H26.3812V13.4H24.6193V11.6666ZM24.6193 15.1333H26.3812V16.8666H24.6193V15.1333ZM22.8573 18.6H24.6193V20.3333H22.8573V18.6Z" fill="#FFDA2C"/>
</g>
</g>
<defs>
<filter id="filter0_dd_411_1266" x="0.142857" y="0.714285" width="50.7143" height="39.7143" filterUnits="userSpaceOnUse" color-interpolation-filters="sRGB">
<feFlood flood-opacity="0" result="BackgroundImageFix"/>
<feColorMatrix in="SourceAlpha" type="matrix" values="0 0 0 0 0 0 0 0 0 0 0 0 0 0 0 0 0 0 127 0" result="hardAlpha"/>
<feOffset dy="4.57143"/>
<feGaussianBlur stdDeviation="3.42857"/>
<feComposite in2="hardAlpha" operator="out"/>
<feColorMatrix type="matrix" values="0 0 0 0 0.258824 0 0 0 0 0.278431 0 0 0 0 0.298039 0 0 0 0.08 0"/>
<feBlend mode="normal" in2="BackgroundImageFix" result="effect1_dropShadow_411_1266"/>
<feColorMatrix in="SourceAlpha" type="matrix" values="0 0 0 0 0 0 0 0 0 0 0 0 0 0 0 0 0 0 127 0" result="hardAlpha"/>
<feOffset/>
<feGaussianBlur stdDeviation="0.285714"/>
<feComposite in2="hardAlpha" operator="out"/>
<feColorMatrix type="matrix" values="0 0 0 0 0.258824 0 0 0 0 0.278431 0 0 0 0 0.298039 0 0 0 0.32 0"/>
<feBlend mode="normal" in2="effect1_dropShadow_411_1266" result="effect2_dropShadow_411_1266"/>
<feBlend mode="normal" in="SourceGraphic" in2="effect2_dropShadow_411_1266" result="shape"/>
</filter>
<clipPath id="clip0_411_1266">
<rect x="7" y="3" width="37" height="26" rx="4" fill="white"/>
</clipPath>
</defs>
</svg>
